<svg width="16" height="16" viewBox="0 0 16 16" fill="none" xmlns="http://www.w3.org/2000/svg">
<path d="M15.488 16H10.512C10.2292 16 10 15.7708 10 15.488V13.512C10 13.2292 10.2292 13 10.512 13H12.488C12.7708 13 13 12.7708 13 12.488V10.512C13 10.2292 13.2292 10 13.512 10H15.488C15.7708 10 16 10.2292 16 10.512V15.488C16 15.7708 15.7708 16 15.488 16Z" fill="#242B32"/>
<path d="M2.488 13H0.512C0.22923 13 0 13.2292 0 13.512V15.488C0 15.7708 0.22923 16 0.512 16H2.488C2.77077 16 3 15.7708 3 15.488V13.512C3 13.2292 2.77077 13 2.488 13Z" fill="#242B32"/>
<path d="M2.488 3H0.512C0.22923 3 0 3.22923 0 3.512V9.488C0 9.77077 0.22923 10 0.512 10H9.488C9.77077 10 10 9.77077 10 9.488V7.512C10 7.22923 9.77077 7 9.488 7H3.512C3.22923 7 3 6.77077 3 6.488V3.512C3 3.22923 2.77077 3 2.488 3Z" fill="#242B32"/>
<path d="M10.512 0H15.488C15.7708 0 16 0.22923 16 0.512V2.488C16 2.77077 15.7708 3 15.488 3H10.512C10.2292 3 10 2.77077 10 2.488V0.512C10 0.22923 10.2292 0 10.512 0Z" fill="#242B32"/>
</svg>
